<svg xmlns="http://www.w3.org/2000/svg" width="103" height="64" fill="none" viewBox="0 0 103 64"><g filter="url(#filter0_d_821_765)"><path fill="#E5E9FE" d="M34.5 56C20.969 56 10 43.464 10 28C10 12.536 20.969 0 34.5 0C48.031 0 59 12.536 59 28C59 43.464 48.031 56 34.5 56Z"/><path fill="#CECDFE" d="M10 28C10 13.698 19.385 1.908 31.5 0.216C30.516 0.079 29.516 0 28.5 0C14.969 0 4 12.536 4 28C4 43.464 14.969 56 28.5 56C29.516 56 30.516 55.921 31.5 55.784C19.385 54.092 10 42.302 10 28Z"/><path fill="#BAC8D3" d="M34.5 52C23.196 52 14 41.234 14 28C14 14.766 23.196 4 34.5 4C45.804 4 55 14.766 55 28C55 41.234 45.804 52 34.5 52Z"/><path fill="#8896CE" d="M46.4812 44.0674L41.7662 41.6364C41.4302 41.4634 41.2182 41.0774 41.2182 40.6394V38.8894C43.7082 37.5204 45.0922 35.0844 45.7542 32.1154C46.7372 31.7544 47.4502 30.6754 47.4502 29.3874V27.9494C47.4502 26.8474 46.9272 25.8654 46.1632 25.3314C45.6282 19.7994 42.5132 17.1644 37.1342 16.4554C36.8672 16.4204 36.6042 16.3974 36.3452 16.3864C34.3772 16.3004 32.3222 15.6154 30.5802 14.1234C29.8412 13.4914 29.2142 12.8364 28.7682 12.1764C28.5642 11.8744 28.1542 11.9824 28.1922 12.3314C28.2572 12.9304 28.3532 13.6314 28.4972 14.4024C29.0272 17.2564 28.7112 16.8124 27.6702 19.3374C27.0882 20.7504 26.7092 22.3544 26.5322 24.0784C25.4732 24.5894 24.7292 25.6844 24.7292 27.0054V28.7344C24.7292 30.2834 25.7462 31.5944 27.1032 32.0344C27.9882 35.4534 29.7702 38.1104 32.7592 39.3384V41.2004C32.7592 41.6774 32.5072 42.1314 32.1072 42.3724L25.9302 46.1054C25.0282 46.6994 24.2922 47.5164 23.7832 48.4494C26.9032 50.6994 30.5732 51.9994 34.4992 51.9994C39.7412 51.9994 44.5282 49.6814 48.1562 45.8784C47.7872 45.0804 47.2162 44.4374 46.4812 44.0674Z"/><path fill="#8896CE" d="M9.99895 29H4.00195C4.02195 29.673 4.05995 30.34 4.12095 31H10.124C10.061 30.34 10.02 29.673 9.99895 29Z"/><path fill="#8896CE" d="M10.2269 24H4.23088C4.14788 24.659 4.08788 25.327 4.04688 26H10.0459C10.0879 25.327 10.1439 24.659 10.2269 24Z"/><path fill="#8896CE" d="M10.5479 34H4.54688C4.67687 34.676 4.82687 35.343 4.99787 36H10.9969C10.8269 35.343 10.6779 34.676 10.5479 34Z"/><path fill="#8896CE" d="M11.9474 39H5.94336C6.19836 39.682 6.48036 40.347 6.78036 41H12.7814C12.4814 40.348 12.2024 39.681 11.9474 39Z"/><path fill="#8896CE" d="M11.272 19H5.279C5.084 19.657 4.902 20.322 4.75 21H10.757C10.909 20.324 11.078 19.655 11.272 19Z"/><path fill="#8896CE" d="M13.2648 14H7.26484C6.93484 14.651 6.62384 15.317 6.33984 16H12.3438C12.6278 15.318 12.9348 14.651 13.2648 14Z"/><path fill="#8896CE" d="M17.3458 8H11.3388C10.7698 8.636 10.2288 9.303 9.7168 10H15.7218C16.2348 9.303 16.7768 8.636 17.3458 8Z"/><path fill="#8896CE" d="M23.4607 3H17.4477C16.4257 3.59 15.4457 4.258 14.5117 5H20.5207C21.4557 4.258 22.4377 3.59 23.4607 3Z"/><path fill="#8896CE" d="M15.0186 45H9.01562C9.47962 45.693 9.96963 46.36 10.4876 47H16.4946C15.9766 46.36 15.4836 45.693 15.0186 45Z"/><path fill="#8896CE" d="M13.332 50C14.135 50.723 14.976 51.394 15.856 52H21.87C20.986 51.393 20.136 50.726 19.33 50H13.332Z"/><path fill="#AFAEFA" d="M34.5 53C22.645 53 13 41.785 13 28C13 14.215 22.645 3 34.5 3C46.355 3 56 14.215 56 28C56 41.785 46.355 53 34.5 53ZM34.5 5C23.748 5 15 15.318 15 28C15 40.682 23.748 51 34.5 51C45.252 51 54 40.682 54 28C54 15.318 45.252 5 34.5 5Z"/><path fill="#FAC9A6" d="M74.5 56C60.969 56 50 43.464 50 28C50 12.536 60.969 0 74.5 0C88.031 0 99 12.536 99 28C99 43.464 88.031 56 74.5 56Z"/><path fill="#F4B389" d="M50 28C50 13.698 59.385 1.908 71.5 0.216C70.516 0.079 69.516 0 68.5 0C54.969 0 44 12.536 44 28C44 43.464 54.969 56 68.5 56C69.516 56 70.516 55.921 71.5 55.784C59.385 54.092 50 42.302 50 28Z"/><path fill="#FCD6BD" d="M74.5 52C63.196 52 54 41.234 54 28C54 14.766 63.196 4 74.5 4C85.804 4 95 14.766 95 28C95 41.234 85.804 52 74.5 52Z"/><path fill="#DF9061" d="M86.4812 44.0674L81.7662 41.6364C81.4302 41.4634 81.2182 41.0774 81.2182 40.6394V38.8894C83.7082 37.5204 85.0922 35.0844 85.7542 32.1154C86.7372 31.7544 87.4502 30.6754 87.4502 29.3874V27.9494C87.4502 26.8474 86.9272 25.8654 86.1632 25.3314C85.6282 19.7994 82.5132 17.1644 77.1342 16.4554C76.8672 16.4204 76.6042 16.3974 76.3452 16.3864C74.3772 16.3004 72.3222 15.6154 70.5802 14.1234C69.8412 13.4914 69.2142 12.8364 68.7682 12.1764C68.5642 11.8744 68.1542 11.9824 68.1922 12.3314C68.2572 12.9304 68.3532 13.6314 68.4972 14.4024C69.0272 17.2564 68.7112 16.8124 67.6702 19.3374C67.0882 20.7504 66.7092 22.3544 66.5322 24.0784C65.4732 24.5894 64.7292 25.6844 64.7292 27.0054V28.7344C64.7292 30.2834 65.7462 31.5944 67.1032 32.0344C67.9882 35.4534 69.7702 38.1104 72.7592 39.3384V41.2004C72.7592 41.6774 72.5072 42.1314 72.1072 42.3724L65.9302 46.1054C65.0282 46.6994 64.2922 47.5164 63.7832 48.4494C66.9032 50.6994 70.5732 51.9994 74.4992 51.9994C79.7412 51.9994 84.5282 49.6814 88.1562 45.8784C87.7872 45.0804 87.2162 44.4374 86.4812 44.0674Z"/><path fill="#DF9061" d="M49.999 29H44.002C44.022 29.673 44.06 30.34 44.121 31H50.124C50.061 30.34 50.02 29.673 49.999 29Z"/><path fill="#DF9061" d="M50.2269 24H44.2309C44.1479 24.659 44.0879 25.327 44.0469 26H50.0459C50.0879 25.327 50.1439 24.659 50.2269 24Z"/><path fill="#DF9061" d="M50.5479 34H44.5469C44.6769 34.676 44.8269 35.343 44.9979 36H50.9969C50.8269 35.343 50.6779 34.676 50.5479 34Z"/><path fill="#DF9061" d="M51.9474 39H45.9434C46.1984 39.682 46.4804 40.347 46.7804 41H52.7814C52.4814 40.348 52.2024 39.681 51.9474 39Z"/><path fill="#DF9061" d="M51.272 19H45.279C45.084 19.657 44.902 20.322 44.75 21H50.757C50.909 20.324 51.078 19.655 51.272 19Z"/><path fill="#DF9061" d="M53.2648 14H47.2648C46.9348 14.651 46.6238 15.317 46.3398 16H52.3438C52.6278 15.318 52.9348 14.651 53.2648 14Z"/><path fill="#DF9061" d="M57.3458 8H51.3388C50.7698 8.636 50.2288 9.303 49.7168 10H55.7218C56.2348 9.303 56.7768 8.636 57.3458 8Z"/><path fill="#DF9061" d="M63.4607 3H57.4477C56.4257 3.59 55.4457 4.258 54.5117 5H60.5207C61.4557 4.258 62.4377 3.59 63.4607 3Z"/><path fill="#DF9061" d="M55.0186 45H49.0156C49.4796 45.693 49.9696 46.36 50.4876 47H56.4946C55.9766 46.36 55.4836 45.693 55.0186 45Z"/><path fill="#DF9061" d="M53.332 50C54.135 50.723 54.976 51.394 55.856 52H61.87C60.986 51.393 60.136 50.726 59.33 50H53.332Z"/><path fill="#F0AE84" d="M74.5 53C62.645 53 53 41.785 53 28C53 14.215 62.645 3 74.5 3C86.355 3 96 14.215 96 28C96 41.785 86.355 53 74.5 53ZM74.5 5C63.748 5 55 15.318 55 28C55 40.682 63.748 51 74.5 51C85.252 51 94 40.682 94 28C94 15.318 85.252 5 74.5 5Z"/></g><defs><filter id="filter0_d_821_765" width="103" height="64" x="0" y="0" color-interpolation-filters="sRGB" filterUnits="userSpaceOnUse"><feFlood flood-opacity="0" result="BackgroundImageFix"/><feColorMatrix in="SourceAlpha" result="hardAlpha" type="matrix" values="0 0 0 0 0 0 0 0 0 0 0 0 0 0 0 0 0 0 127 0"/><feOffset dy="4"/><feGaussianBlur stdDeviation="2"/><feComposite in2="hardAlpha" operator="out"/><feColorMatrix type="matrix" values="0 0 0 0 0 0 0 0 0 0 0 0 0 0 0 0 0 0 0.25 0"/><feBlend in2="BackgroundImageFix" mode="normal" result="effect1_dropShadow_821_765"/><feBlend in="SourceGraphic" in2="effect1_dropShadow_821_765" mode="normal" result="shape"/></filter></defs></svg>