<svg width="61" height="61" viewBox="0 0 61 61" fill="none" xmlns="http://www.w3.org/2000/svg">
<ellipse cx="31" cy="30.5" rx="30" ry="28.5938" fill="white"/>
<path fill-rule="evenodd" clip-rule="evenodd" d="M1 30.5C1 14.7081 14.4311 1.90625 30.9991 1.90625C47.5672 1.90625 60.9982 14.7081 60.9982 30.5C60.9982 46.2919 47.5672 59.0938 30.9991 59.0938C14.4311 59.0938 1 46.2919 1 30.5ZM24.5707 24.3728C24.5707 23.4178 25.0895 22.448 26.2218 21.6478C27.3641 20.8407 29.046 20.2879 30.9991 20.2879C32.9522 20.2879 34.6341 20.8407 35.7764 21.6478C36.9087 22.448 37.4275 23.4178 37.4275 24.3728C37.4275 25.5007 38.3869 26.4152 39.5703 26.4152C40.7537 26.4152 41.7131 25.5007 41.7131 24.3728C41.7131 21.8556 40.3034 19.7618 38.3286 18.3664C36.8818 17.3441 35.089 16.6545 33.1419 16.3618V14.1607C33.1419 13.0327 32.1825 12.1183 30.9991 12.1183C29.8157 12.1183 28.8563 13.0327 28.8563 14.1607V16.3618C26.9092 16.6545 25.1163 17.3441 23.6696 18.3664C21.6949 19.7618 20.2851 21.8556 20.2851 24.3728C20.2851 26.8898 21.6949 28.9837 23.6696 30.3791C25.6344 31.7677 28.2381 32.5424 30.9991 32.5424C32.9522 32.5424 34.6341 33.0952 35.7764 33.9024C36.9087 34.7025 37.4275 35.6722 37.4275 36.6272C37.4275 37.5823 36.9087 38.552 35.7764 39.3521C34.6341 40.1592 32.9522 40.7121 30.9991 40.7121C29.046 40.7121 27.3641 40.1592 26.2218 39.3521C25.0895 38.552 24.5707 37.5823 24.5707 36.6272C24.5707 35.4993 23.6114 34.5848 22.4279 34.5848C21.2445 34.5848 20.2851 35.4993 20.2851 36.6272C20.2851 39.1443 21.6949 41.2382 23.6696 42.6335C25.1163 43.6558 26.9092 44.3456 28.8563 44.6381V46.8393C28.8563 47.9672 29.8157 48.8817 30.9991 48.8817C32.1825 48.8817 33.1419 47.9672 33.1419 46.8393V44.6381C35.089 44.3456 36.8818 43.6558 38.3286 42.6335C40.3034 41.2382 41.7131 39.1443 41.7131 36.6272C41.7131 34.1102 40.3034 32.0163 38.3286 30.6209C36.3638 29.2323 33.7602 28.4576 30.9991 28.4576C29.046 28.4576 27.3641 27.9048 26.2218 27.0976C25.0895 26.2975 24.5707 25.3278 24.5707 24.3728Z" fill="#191136"/>
<circle cx="30.5" cy="30.5" r="29" stroke="#8896CE" stroke-width="3"/>
</svg>
