<svg xmlns="http://www.w3.org/2000/svg" width="60" height="60" fill="none" viewBox="0 0 60 60"><circle cx="30" cy="30" r="30" fill="#fff"/><path fill="#191136" fill-rule="evenodd" d="M0 30C0 13.4315 13.4311 0 29.9991 0C46.5672 0 59.9982 13.4315 59.9982 30C59.9982 46.5686 46.5672 60 29.9991 60C13.4311 60 0 46.5686 0 30ZM23.5707 23.5714C23.5707 22.5695 24.0895 21.552 25.2218 20.7125C26.3641 19.8657 28.046 19.2857 29.9991 19.2857C31.9522 19.2857 33.6341 19.8657 34.7764 20.7125C35.9087 21.552 36.4275 22.5695 36.4275 23.5714C36.4275 24.7549 37.3869 25.7143 38.5703 25.7143C39.7537 25.7143 40.7131 24.7549 40.7131 23.5714C40.7131 20.9305 39.3034 18.7337 37.3286 17.2697C35.8818 16.1971 34.089 15.4735 32.1419 15.1665V12.8571C32.1419 11.6737 31.1825 10.7143 29.9991 10.7143C28.8157 10.7143 27.8563 11.6737 27.8563 12.8571V15.1665C25.9092 15.4735 24.1163 16.1971 22.6696 17.2697C20.6949 18.7337 19.2851 20.9305 19.2851 23.5714C19.2851 26.2123 20.6949 28.4091 22.6696 29.8731C24.6344 31.33 27.2381 32.1429 29.9991 32.1429C31.9522 32.1429 33.6341 32.7229 34.7764 33.5697C35.9087 34.4091 36.4275 35.4266 36.4275 36.4286C36.4275 37.4306 35.9087 38.448 34.7764 39.2874C33.6341 40.1343 31.9522 40.7143 29.9991 40.7143C28.046 40.7143 26.3641 40.1343 25.2218 39.2874C24.0895 38.448 23.5707 37.4306 23.5707 36.4286C23.5707 35.2451 22.6114 34.2857 21.4279 34.2857C20.2445 34.2857 19.2851 35.2451 19.2851 36.4286C19.2851 39.0694 20.6949 41.2663 22.6696 42.7303C24.1163 43.8029 25.9092 44.5266 27.8563 44.8334V47.1429C27.8563 48.3263 28.8157 49.2857 29.9991 49.2857C31.1825 49.2857 32.1419 48.3263 32.1419 47.1429V44.8334C34.089 44.5266 35.8818 43.8029 37.3286 42.7303C39.3034 41.2663 40.7131 39.0694 40.7131 36.4286C40.7131 33.7877 39.3034 31.5909 37.3286 30.1269C35.3638 28.67 32.7602 27.8571 29.9991 27.8571C28.046 27.8571 26.3641 27.2771 25.2218 26.4303C24.0895 25.5909 23.5707 24.5734 23.5707 23.5714Z" clip-rule="evenodd"/></svg>