<svg xmlns="http://www.w3.org/2000/svg" width="34" height="34" fill="none" viewBox="0 0 34 34"><path stroke="#8896CE" stroke-linecap="round" stroke-linejoin="round" stroke-width="3" d="M2.00977 27.4345C2.00977 28.6452 2.49075 29.8064 3.3469 30.6626C4.20306 31.5187 5.36426 31.9998 6.57504 31.9998C7.78582 31.9998 8.94702 31.5187 9.80318 30.6626C10.6593 29.8064 11.1403 28.6452 11.1403 27.4345V22.8691H6.57504C5.36426 22.8691 4.20306 23.3501 3.3469 24.2063C2.49075 25.0625 2.00977 26.2237 2.00977 27.4345Z"/><path stroke="#8896CE" stroke-linecap="round" stroke-linejoin="round" stroke-width="3" d="M6.57504 2C5.36426 2 4.20306 2.48099 3.3469 3.33713C2.49075 4.19329 2.00977 5.35449 2.00977 6.56527C2.00977 7.77605 2.49075 8.93725 3.3469 9.79341C4.20306 10.6496 5.36426 11.1305 6.57504 11.1305H11.1403V6.56527C11.1403 5.35449 10.6593 4.19329 9.80318 3.33713C8.94702 2.48099 7.78582 2 6.57504 2Z"/><path stroke="#8896CE" stroke-linecap="round" stroke-linejoin="round" stroke-width="3" d="M27.4443 22.8691H22.8789V27.4345C22.8789 28.3374 23.1467 29.22 23.6484 29.9709C24.1499 30.7216 24.8629 31.3067 25.6971 31.6522C26.5313 31.9978 27.4493 32.0882 28.3348 31.9121C29.2205 31.7359 30.0338 31.3011 30.6723 30.6626C31.3108 30.0242 31.7457 29.2107 31.9218 28.3252C32.0978 27.4395 32.0075 26.5217 31.662 25.6875C31.3165 24.8532 30.7313 24.1403 29.9805 23.6387C29.2298 23.137 28.3471 22.8691 27.4443 22.8691Z"/><path stroke="#8896CE" stroke-linecap="round" stroke-linejoin="round" stroke-width="3" d="M22.88 11.127H11.1406V22.8662H22.88V11.127Z"/><path stroke="#8896CE" stroke-linecap="round" stroke-linejoin="round" stroke-width="3" d="M32.0095 6.56527C32.0095 5.35449 31.5285 4.19329 30.6723 3.33713C29.8162 2.48099 28.655 2 27.4443 2C26.2334 2 25.0723 2.48099 24.2161 3.33713C23.3599 4.19329 22.8789 5.35449 22.8789 6.56527V11.1305H27.4443C28.655 11.1305 29.8162 10.6496 30.6723 9.79341C31.5285 8.93725 32.0095 7.77605 32.0095 6.56527Z"/></svg>