<svg width="100" height="100" viewBox="0 0 278 222" fill="none" xmlns="http://www.w3.org/2000/svg">
  <path
    d="M200.527 51.4261C202.37 63.5898 200.527 82.2961 213.843 92.2483C226.513 101.694 236.972 99.3438 236.972 99.3438C238.216 94.8284 254.25 50.6889 200.527 51.4261Z"
    fill="#2B2065" />
  <path
    d="M272.542 54.2827C261.161 58.8902 242.501 61.4704 235.958 76.7671C233.747 81.9275 232.917 86.4889 232.779 90.2209C229.6 97.2704 226.559 103.03 223.61 107.729C214.119 122.796 205.964 126.712 199.605 126.896C186.658 127.265 182.097 111.968 149.845 84.5077C127.913 65.8014 115.151 55.2503 95.4767 52.2554C69.3985 48.293 49.0335 60.4567 46.0847 62.2997C40.4176 65.8014 24.1993 75.7535 18.0713 94.6441C5.95371 132.057 43.2742 166.797 47.467 170.575C65.39 186.793 85.0178 191.493 95.8454 194.073C102.849 195.732 127.545 201.03 158.138 193.428C175.739 189.051 209.281 180.712 229.093 149.012C239.46 132.425 242.501 115.147 242.731 101.095C256.968 100.542 282.862 94.7823 272.542 54.2827Z"
    fill="#5B3CFA" />
  <g opacity="0.15">
    <g opacity="0.15">
      <g opacity="0.15">
        <path opacity="0.15"
          d="M272.542 54.2842C271.021 54.9292 269.317 55.4821 267.566 56.0811C275.767 93.4016 250.979 99.0227 237.157 99.5756C237.018 113.628 234.07 130.906 223.841 147.539C204.259 179.377 170.717 187.901 153.163 192.416C133.212 197.484 115.75 197.07 104.093 195.733C115.381 197.576 135.101 199.143 158.139 193.43C175.739 189.053 209.281 180.713 229.094 149.014C239.46 132.427 242.501 115.149 242.732 101.096C256.969 100.543 282.863 94.7838 272.542 54.2842Z"
          fill="#515151" />
      </g>
    </g>
  </g>
  <path opacity="0.2"
    d="M31.8939 109.895C34.6934 109.895 36.9621 107.296 36.9621 104.09C36.9621 100.883 34.6934 98.2842 31.8939 98.2842C29.0949 98.2842 26.8257 100.883 26.8257 104.09C26.8257 107.296 29.0949 109.895 31.8939 109.895Z"
    fill="#515151" />
  <path opacity="0.2"
    d="M67.4633 104.135C70.3135 104.135 72.6237 101.474 72.6237 98.1917C72.6237 94.9093 70.3135 92.248 67.4633 92.248C64.6136 92.248 62.303 94.9093 62.303 98.1917C62.303 101.474 64.6136 104.135 67.4633 104.135Z"
    fill="#515151" />
  <g opacity="0.16">
    <g opacity="0.16">
      <g opacity="0.16">
        <path opacity="0.16"
          d="M39.8643 71.2362C42.3523 69.7158 63.132 57.9207 89.2563 61.192C112.616 64.1407 128.189 77.6406 143.302 90.7719C172.283 115.929 187.165 134.312 200.527 131.64C206.793 130.396 210.801 127.125 217.39 116.712C217.712 116.205 218.035 115.698 218.311 115.191C211.078 124.176 204.719 126.756 199.605 126.894C186.658 127.263 182.097 111.966 149.844 84.5057C127.913 65.7994 115.15 55.2483 95.4764 52.2535C69.3981 48.2911 49.0331 60.4548 46.0844 62.2978C41.2926 65.2465 29.0828 72.7567 21.6648 86.3026C28.4838 78.2857 36.2705 73.4939 39.8643 71.2362Z"
          fill="#515151" />
      </g>
    </g>
  </g>
  <path
    d="M158.138 193.382C171.638 190.019 194.491 184.351 213.382 167.58C176.246 183.43 152.011 180.619 136.023 173.846C98.1032 157.72 87.7364 110.862 55.8527 112.106C47.375 112.429 36.1328 115.977 30.9724 125.007C24.7063 136.019 30.696 149.196 31.6636 151.27C34.7506 156.338 39.8188 163.48 47.4672 170.529C64.8834 186.563 84.0044 191.217 95.8455 194.027C102.849 195.732 127.545 200.984 158.138 193.382Z"
    fill="#A6FFD0" />
  <path opacity="0.12" d="M54.2861 112.106C54.2861 112.106 75.9412 163.71 135.608 176.15" stroke="#2B2065"
    stroke-width="6" stroke-miterlimit="10" stroke-linecap="round" stroke-linejoin="round" />
  <path opacity="0.08"
    d="M161.917 188.866C131.323 196.469 106.627 191.216 99.6237 189.511C87.7825 186.655 68.6616 182.047 51.2453 166.013C43.5969 158.964 38.5287 151.822 35.4417 146.754C34.4742 144.681 28.4845 131.503 34.7506 120.492C34.8428 120.307 34.981 120.123 35.1192 119.893C33.5066 121.367 32.1244 123.072 31.0186 125.007C24.7524 136.019 30.7421 149.196 31.7097 151.269C34.7967 156.338 39.8649 163.479 47.5133 170.529C64.9295 186.563 84.0505 191.216 95.8917 194.027C102.895 195.685 127.591 200.984 158.185 193.382C171.684 190.018 194.538 184.351 213.428 167.58C212.046 168.179 210.664 168.732 209.281 169.285C192.188 181.31 173.527 185.964 161.917 188.866Z"
    fill="#515151" />
  <path opacity="0.12"
    d="M31.8938 125.837C31.8938 125.837 40.6941 159.656 77.5538 178.685C104.738 192.737 148.186 200.201 202.37 174.768"
    stroke="#2B2065" stroke-width="6" stroke-miterlimit="10" stroke-linecap="round" stroke-linejoin="round" />
  <path opacity="0.12" d="M38.8972 117.036C38.8972 117.036 69.03 210.245 194.768 175.459" stroke="#2B2065"
    stroke-width="6" stroke-miterlimit="10" stroke-linecap="round" stroke-linejoin="round" />
  <path
    d="M158.138 193.382C171.638 190.019 194.491 184.351 213.382 167.58C176.246 183.43 152.011 180.619 136.023 173.846C98.1032 157.72 87.7364 110.862 55.8527 112.106C47.375 112.429 36.1328 115.977 30.9724 125.007C24.7063 136.019 30.696 149.196 31.6636 151.27C34.7506 156.338 39.8188 163.48 47.4672 170.529C64.8834 186.563 84.0044 191.217 95.8455 194.027C102.849 195.732 127.545 200.984 158.138 193.382Z"
    stroke="#2B2065" stroke-width="6" stroke-miterlimit="10" stroke-linecap="round" stroke-linejoin="round" />
  <path
    d="M30.4657 109.158C32.7815 109.158 34.6585 106.724 34.6585 103.721C34.6585 100.718 32.7815 98.2842 30.4657 98.2842C28.15 98.2842 26.2729 100.718 26.2729 103.721C26.2729 106.724 28.15 109.158 30.4657 109.158Z"
    fill="#2B2065" />
  <path
    d="M29.8206 103.122C30.6094 103.122 31.249 102.276 31.249 101.233C31.249 100.189 30.6094 99.3438 29.8206 99.3438C29.0318 99.3438 28.3923 100.189 28.3923 101.233C28.3923 102.276 29.0318 103.122 29.8206 103.122Z"
    fill="white" />
  <path
    d="M65.8508 103.168C68.1665 103.168 70.0436 100.733 70.0436 97.7307C70.0436 94.7281 68.1665 92.2939 65.8508 92.2939C63.535 92.2939 61.658 94.7281 61.658 97.7307C61.658 100.733 63.535 103.168 65.8508 103.168Z"
    fill="#2B2065" />
  <path
    d="M65.298 97.7308C66.138 97.7308 66.8185 96.7406 66.8185 95.5192C66.8185 94.2978 66.138 93.3076 65.298 93.3076C64.4586 93.3076 63.7776 94.2978 63.7776 95.5192C63.7776 96.7406 64.4586 97.7308 65.298 97.7308Z"
    fill="white" />
  <path
    d="M66.035 101.555C66.4423 101.555 66.7722 101.06 66.7722 100.45C66.7722 99.8386 66.4423 99.3438 66.035 99.3438C65.6282 99.3438 65.2979 99.8386 65.2979 100.45C65.2979 101.06 65.6282 101.555 66.035 101.555Z"
    fill="white" />
  <path
    d="M31.2487 107.038C31.656 107.038 31.9859 106.543 31.9859 105.932C31.9859 105.321 31.656 104.826 31.2487 104.826C30.8418 104.826 30.5115 105.321 30.5115 105.932C30.5115 106.543 30.8418 107.038 31.2487 107.038Z"
    fill="white" />
  <path
    d="M272.542 54.2827C261.161 58.8902 242.501 61.4704 235.958 76.7671C233.747 81.9275 232.917 86.4889 232.779 90.2209C229.6 97.2704 226.559 103.03 223.61 107.729C214.119 122.796 205.964 126.712 199.605 126.896C186.658 127.265 182.097 111.968 149.845 84.5077C127.913 65.8014 115.151 55.2503 95.4767 52.2554C69.3985 48.293 49.0335 60.4567 46.0847 62.2997C40.4176 65.8014 24.1993 75.7535 18.0713 94.6441C5.95371 132.057 43.2742 166.797 47.467 170.575C65.39 186.793 85.0178 191.493 95.8454 194.073C102.849 195.732 127.545 201.03 158.138 193.428C175.739 189.051 209.281 180.712 229.093 149.012C239.46 132.425 242.501 115.147 242.731 101.095C256.968 100.542 282.862 94.7823 272.542 54.2827Z"
    stroke="#2B2065" stroke-width="6" stroke-miterlimit="10" stroke-linecap="round" stroke-linejoin="round" />
  <path
    d="M145.238 150.809C145.238 150.809 171.178 180.711 151.688 216.235C139.709 228.214 129.204 190.433 129.204 178.453C129.204 166.474 133.258 159.701 133.258 159.701"
    fill="#5B3CFA" />
  <path opacity="0.2"
    d="M145.238 150.809L144.639 151.223C151.043 162.189 159.889 184.397 146.159 209.462C143.348 212.272 140.63 212.364 138.096 210.66C141.92 217.525 146.712 221.257 151.688 216.235C171.178 180.711 145.238 150.809 145.238 150.809Z"
    fill="#515151" />
  <path
    d="M145.238 150.809C145.238 150.809 171.178 180.711 151.688 216.235C139.709 228.214 129.204 190.433 129.204 178.453C129.204 166.474 133.258 159.701 133.258 159.701"
    stroke="#2B2065" stroke-width="6" stroke-miterlimit="10" stroke-linecap="round" stroke-linejoin="round" />
  <path opacity="0.28"
    d="M184.309 3.83068C184.309 3.83068 165.418 0.144707 165.418 19.4961C165.418 38.8474 195.827 42.5334 204.121 34.2399C212.414 25.9465 227.02 11.7094 218.865 3.55423C210.71 -4.60098 184.309 3.83068 184.309 3.83068Z"
    fill="#F4F4F4" />
  <path opacity="0.28"
    d="M10.0546 28.8952C8.99492 28.757 3.14345 28.0659 0.885788 31.245C-1.92477 35.1614 2.40625 42.6715 7.52053 46.2193C10.9761 48.6152 18.1638 51.5179 22.3105 47.6937C26.1808 44.1459 25.3053 36.5897 21.3429 32.3969C17.1041 27.9277 10.6997 28.8031 10.0546 28.8952Z"
    fill="#F4F4F4" />
</svg>