<svg width="17" height="17" viewBox="0 0 17 17" fill="none" xmlns="http://www.w3.org/2000/svg">
  <path fill-rule="evenodd" clip-rule="evenodd"
    d="M3.39993 2.2666C3.09936 2.2666 2.81109 2.38601 2.59855 2.59855C2.38601 2.81109 2.2666 3.09936 2.2666 3.39994V13.5999C2.2666 13.9005 2.38601 14.1888 2.59855 14.4013C2.81109 14.6139 3.09936 14.7333 3.39993 14.7333H13.5999C13.9005 14.7333 14.1888 14.6139 14.4013 14.4013C14.6139 14.1888 14.7333 13.9005 14.7333 13.5999V9.63327C14.7333 9.48298 14.6736 9.33885 14.5673 9.23258C14.461 9.12631 14.3169 9.0666 14.1666 9.0666C14.0163 9.0666 13.8722 9.12631 13.7659 9.23258C13.6596 9.33885 13.5999 9.48298 13.5999 9.63327V13.5999H3.39993V3.39994H7.3666C7.51689 3.39994 7.66102 3.34023 7.7673 3.23396C7.87357 3.12769 7.93327 2.98356 7.93327 2.83327C7.93327 2.68298 7.87357 2.53885 7.7673 2.43258C7.66102 2.32631 7.51689 2.2666 7.3666 2.2666H3.39993ZM14.5678 2.43207C14.6732 2.53771 14.7326 2.68066 14.7333 2.82987V6.23327C14.7333 6.38356 14.6736 6.52769 14.5673 6.63396C14.461 6.74023 14.3169 6.79994 14.1666 6.79994C14.0163 6.79994 13.8722 6.74023 13.7659 6.63396C13.6596 6.52769 13.5999 6.38356 13.5999 6.23327V4.2012L7.7678 10.0345C7.71512 10.0872 7.65257 10.129 7.58373 10.1575C7.51489 10.186 7.44111 10.2007 7.3666 10.2007C7.29209 10.2007 7.21831 10.186 7.14947 10.1575C7.08064 10.129 7.01809 10.0872 6.9654 10.0345C6.91271 9.98178 6.87092 9.91924 6.84241 9.8504C6.81389 9.78156 6.79922 9.70778 6.79922 9.63327C6.79922 9.55876 6.81389 9.48498 6.84241 9.41614C6.87092 9.3473 6.91271 9.28476 6.9654 9.23207L12.7987 3.39994H10.7666C10.6163 3.39994 10.4722 3.34023 10.3659 3.23396C10.2596 3.12769 10.1999 2.98356 10.1999 2.83327C10.1999 2.68298 10.2596 2.53885 10.3659 2.43258C10.4722 2.32631 10.6163 2.2666 10.7666 2.2666H14.1666C14.2411 2.26641 14.3149 2.28093 14.3837 2.30932C14.4526 2.33772 14.5151 2.37943 14.5678 2.43207Z"
    fill="currentColor" />
</svg>