<svg width="20" height="20" viewBox="0 0 25 25" fill="none">
  <path
    d="M12.5002 3.12454H12.9096C11.5714 4.36799 10.7112 6.04105 10.4786 7.8529C10.246 9.66475 10.6557 11.5008 11.6364 13.042C12.6171 14.5831 14.1068 15.7319 15.8466 16.2886C17.5865 16.8453 19.4664 16.7747 21.1596 16.0891C20.5082 17.6563 19.4437 19.0173 18.0795 20.0269C16.7154 21.0365 15.1027 21.6569 13.4136 21.8218C11.7245 21.9868 10.0223 21.6901 8.48861 20.9635C6.95488 20.2369 5.64717 19.1076 4.70496 17.696C3.76275 16.2844 3.22138 14.6436 3.1386 12.9485C3.05582 11.2534 3.43474 9.56756 4.23494 8.07091C5.03514 6.57426 6.2266 5.3229 7.68222 4.45031C9.13785 3.57771 10.803 3.11662 12.5002 3.11621V3.12454Z"
    stroke="currentColor" stroke-width="1.8" stroke-linecap="round" stroke-linejoin="round" />
</svg>