<svg width="20" height="20" viewBox="0 0 25 25" fill="none">
  <g clip-path="url(#clip0_3444_341)">
    <path
      d="M11.3281 3.51562V1.95312C11.3281 1.64232 11.4516 1.34425 11.6714 1.12448C11.8911 0.904715 12.1892 0.78125 12.5 0.78125C12.8108 0.78125 13.1089 0.904715 13.3286 1.12448C13.5484 1.34425 13.6719 1.64232 13.6719 1.95312V3.51562C13.6719 3.82643 13.5484 4.1245 13.3286 4.34427C13.1089 4.56404 12.8108 4.6875 12.5 4.6875C12.1892 4.6875 11.8911 4.56404 11.6714 4.34427C11.4516 4.1245 11.3281 3.82643 11.3281 3.51562ZM19.1406 12.5C19.1406 13.8134 18.7512 15.0973 18.0215 16.1893C17.2918 17.2814 16.2547 18.1325 15.0413 18.6351C13.8278 19.1378 12.4926 19.2693 11.2045 19.013C9.91632 18.7568 8.73308 18.1243 7.80437 17.1956C6.87566 16.2669 6.2432 15.0837 5.98697 13.7955C5.73074 12.5074 5.86225 11.1722 6.36486 9.95874C6.86748 8.74533 7.71862 7.7082 8.81067 6.97852C9.90271 6.24884 11.1866 5.85938 12.5 5.85938C14.2606 5.86118 15.9487 6.5614 17.1936 7.80637C18.4386 9.05133 19.1388 10.7394 19.1406 12.5ZM16.7969 12.5C16.7969 11.6502 16.5449 10.8194 16.0727 10.1128C15.6006 9.40617 14.9295 8.85543 14.1443 8.53021C13.3592 8.20499 12.4952 8.11989 11.6617 8.28569C10.8282 8.45148 10.0626 8.86072 9.46165 9.46165C8.86072 10.0626 8.45148 10.8282 8.28569 11.6617C8.11989 12.4952 8.20499 13.3592 8.53021 14.1443C8.85543 14.9295 9.40617 15.6006 10.1128 16.0727C10.8194 16.5449 11.6502 16.7969 12.5 16.7969C13.6392 16.7956 14.7314 16.3425 15.5369 15.5369C16.3425 14.7314 16.7956 13.6392 16.7969 12.5ZM5.03027 6.68848C5.13928 6.79748 5.26869 6.88395 5.41112 6.94295C5.55354 7.00194 5.70619 7.03231 5.86035 7.03231C6.01451 7.03231 6.16716 7.00194 6.30959 6.94295C6.45201 6.88395 6.58142 6.79748 6.69043 6.68848C6.79944 6.57947 6.88591 6.45006 6.9449 6.30763C7.0039 6.16521 7.03426 6.01256 7.03426 5.8584C7.03426 5.70424 7.0039 5.55159 6.9449 5.40916C6.88591 5.26674 6.79944 5.13733 6.69043 5.02832L5.51855 3.85645C5.2984 3.6363 4.99982 3.51262 4.68848 3.51262C4.37714 3.51262 4.07855 3.6363 3.8584 3.85645C3.63825 4.0766 3.51457 4.37518 3.51457 4.68652C3.51457 4.99786 3.63825 5.29645 3.8584 5.5166L5.03027 6.68848ZM5.03027 18.3096L3.8584 19.4814C3.74939 19.5905 3.66292 19.7199 3.60393 19.8623C3.54493 20.0047 3.51457 20.1574 3.51457 20.3115C3.51457 20.4657 3.54493 20.6183 3.60393 20.7608C3.66292 20.9032 3.74939 21.0326 3.8584 21.1416C4.07855 21.3618 4.37714 21.4854 4.68848 21.4854C4.84264 21.4854 4.99529 21.4551 5.13771 21.3961C5.28014 21.3371 5.40955 21.2506 5.51855 21.1416L6.69043 19.9697C6.91058 19.7496 7.03426 19.451 7.03426 19.1396C7.03426 18.8283 6.91058 18.5297 6.69043 18.3096C6.47028 18.0894 6.17169 17.9657 5.86035 17.9657C5.54901 17.9657 5.25042 18.0894 5.03027 18.3096ZM19.1406 7.03125C19.2946 7.03137 19.447 7.00116 19.5893 6.94235C19.7315 6.88353 19.8608 6.79727 19.9697 6.68848L21.1416 5.5166C21.2506 5.40759 21.3371 5.27818 21.3961 5.13576C21.4551 4.99333 21.4854 4.84068 21.4854 4.68652C21.4854 4.53236 21.4551 4.37971 21.3961 4.23729C21.3371 4.09486 21.2506 3.96545 21.1416 3.85645C21.0326 3.74744 20.9032 3.66097 20.7608 3.60197C20.6183 3.54298 20.4657 3.51262 20.3115 3.51262C20.1574 3.51262 20.0047 3.54298 19.8623 3.60197C19.7199 3.66097 19.5905 3.74744 19.4814 3.85645L18.3096 5.02832C18.1447 5.19223 18.0323 5.40147 17.9867 5.62943C17.9411 5.85739 17.9643 6.09376 18.0534 6.30849C18.1425 6.52322 18.2934 6.7066 18.487 6.8353C18.6806 6.964 18.9081 7.03221 19.1406 7.03125ZM19.9697 18.3115C19.7496 18.0914 19.451 17.9677 19.1396 17.9677C18.8283 17.9677 18.5297 18.0914 18.3096 18.3115C18.0894 18.5317 17.9657 18.8303 17.9657 19.1416C17.9657 19.4529 18.0894 19.7515 18.3096 19.9717L19.4814 21.1436C19.7016 21.3637 20.0002 21.4874 20.3115 21.4874C20.6229 21.4874 20.9215 21.3637 21.1416 21.1436C21.3618 20.9234 21.4854 20.6248 21.4854 20.3135C21.4854 20.0021 21.3618 19.7035 21.1416 19.4834L19.9697 18.3115ZM4.6875 12.5C4.6875 12.1892 4.56404 11.8911 4.34427 11.6714C4.1245 11.4516 3.82643 11.3281 3.51562 11.3281H1.95312C1.64232 11.3281 1.34425 11.4516 1.12448 11.6714C0.904715 11.8911 0.78125 12.1892 0.78125 12.5C0.78125 12.8108 0.904715 13.1089 1.12448 13.3286C1.34425 13.5484 1.64232 13.6719 1.95312 13.6719H3.51562C3.82643 13.6719 4.1245 13.5484 4.34427 13.3286C4.56404 13.1089 4.6875 12.8108 4.6875 12.5ZM12.5 20.3125C12.1892 20.3125 11.8911 20.436 11.6714 20.6557C11.4516 20.8755 11.3281 21.1736 11.3281 21.4844V23.0469C11.3281 23.3577 11.4516 23.6557 11.6714 23.8755C11.8911 24.0953 12.1892 24.2188 12.5 24.2188C12.8108 24.2188 13.1089 24.0953 13.3286 23.8755C13.5484 23.6557 13.6719 23.3577 13.6719 23.0469V21.4844C13.6719 21.1736 13.5484 20.8755 13.3286 20.6557C13.1089 20.436 12.8108 20.3125 12.5 20.3125ZM23.0469 11.3281H21.4844C21.1736 11.3281 20.8755 11.4516 20.6557 11.6714C20.436 11.8911 20.3125 12.1892 20.3125 12.5C20.3125 12.8108 20.436 13.1089 20.6557 13.3286C20.8755 13.5484 21.1736 13.6719 21.4844 13.6719H23.0469C23.3577 13.6719 23.6557 13.5484 23.8755 13.3286C24.0953 13.1089 24.2188 12.8108 24.2188 12.5C24.2188 12.1892 24.0953 11.8911 23.8755 11.6714C23.6557 11.4516 23.3577 11.3281 23.0469 11.3281Z"
      fill="currentColor" />
  </g>
  <defs>
    <clipPath id="clip0_3444_341">
      <rect width="25" height="25" fill="white" />
    </clipPath>
  </defs>
</svg>