<svg width="23" height="23" viewBox="0 0 32 32" fill="none" xmlns="http://www.w3.org/2000/svg">
  <path fill-rule="evenodd" clip-rule="evenodd"
    d="M10.5214 11.5886C10.427 11.6765 10.3514 11.7824 10.2989 11.9002C10.2465 12.018 10.2182 12.1451 10.216 12.274C10.2137 12.4029 10.2374 12.5309 10.2857 12.6505C10.334 12.77 10.4058 12.8786 10.497 12.9697C10.5882 13.0609 10.6967 13.1328 10.8163 13.181C10.9358 13.2293 11.0639 13.253 11.1928 13.2508C11.3217 13.2485 11.4488 13.2203 11.5665 13.1678C11.6843 13.1153 11.7903 13.0397 11.8782 12.9454L15.9998 8.82377L20.1214 12.9454C20.3034 13.1149 20.5441 13.2073 20.7928 13.2029C21.0415 13.1985 21.2788 13.0977 21.4546 12.9218C21.6305 12.746 21.7313 12.5087 21.7357 12.26C21.7401 12.0113 21.6477 11.7706 21.4782 11.5886L16.6782 6.78857C16.4982 6.60879 16.2542 6.50781 15.9998 6.50781C15.7454 6.50781 15.5014 6.60879 15.3214 6.78857L10.5214 11.5886ZM21.4782 20.412C21.6477 20.2301 21.7401 19.9894 21.7357 19.7406C21.7313 19.4919 21.6305 19.2546 21.4546 19.0788C21.2788 18.9029 21.0415 18.8021 20.7928 18.7977C20.5441 18.7933 20.3034 18.8857 20.1214 19.0552L15.9998 23.1768L11.8782 19.0552C11.6962 18.8857 11.4555 18.7933 11.2068 18.7977C10.9581 18.8021 10.7208 18.9029 10.5449 19.0788C10.369 19.2546 10.2683 19.4919 10.2639 19.7406C10.2595 19.9894 10.3518 20.2301 10.5214 20.412L15.3214 25.212C15.5014 25.3918 15.7454 25.4928 15.9998 25.4928C16.2542 25.4928 16.4982 25.3918 16.6782 25.212L21.4782 20.412Z"
    fill="currentColor" />
</svg>